<?xml version="1.0" encoding="UTF-8" standalone="no"?>
<!DOCTYPE svg PUBLIC "-//W3C//DTD SVG 1.1//EN" "http://www.w3.org/Graphics/SVG/1.1/DTD/svg11.dtd">
<svg width="100%" height="100%" viewBox="0 0 240 172" version="1.1" xmlns="http://www.w3.org/2000/svg" xmlns:xlink="http://www.w3.org/1999/xlink" xml:space="preserve" xmlns:serif="http://www.serif.com/" style="fill-rule:evenodd;clip-rule:evenodd;stroke-linejoin:round;stroke-miterlimit:2;">
    <g transform="matrix(1,0,0,1,0,-1420)">
        <g id="aboutUsIcon2" transform="matrix(1,0,0,1,0,1516)">
            <g transform="matrix(2.42424,0,0,0.482759,-53.3333,-5.10345)">
                <rect x="22" y="23" width="99" height="145" style="fill:rgb(217,217,217);"/>
            </g>
            <g transform="matrix(1.75,0,0,1.25,57,-97)">
                <rect x="12" y="8" width="48" height="48" style="fill:rgb(204,204,204);"/>
            </g>
            <g transform="matrix(1,0,0,1,1.42109e-13,-93.9884)">
                <g transform="matrix(1.33333,0,0,1.33333,12.9167,-28.6667)">
                    <circle cx="95.5" cy="75.5" r="1.5" style="fill:rgb(204,204,204);"/>
                </g>
                <g transform="matrix(1.33333,0,0,1.33333,2.91667,-28.6667)">
                    <circle cx="95.5" cy="75.5" r="1.5" style="fill:rgb(204,204,204);"/>
                </g>
                <g transform="matrix(1.33333,0,0,1.33333,-7.08333,-28.6667)">
                    <circle cx="95.5" cy="75.5" r="1.5" style="fill:rgb(204,204,204);"/>
                </g>
                <g transform="matrix(1.33333,0,0,1.33333,-27.0833,-28.6667)">
                    <circle cx="95.5" cy="75.5" r="1.5" style="fill:rgb(204,204,204);"/>
                </g>
                <g transform="matrix(2,0,0,2,-80.75,-79)">
                    <circle cx="95.5" cy="75.5" r="1.5" style="fill:rgb(115,115,115);"/>
                </g>
            </g>
            <g transform="matrix(1.02878,0,0,1,17.5971,-37)">
                <g transform="matrix(0.871473,0,0,1.5,1.79937,-312.5)">
                    <rect x="14" y="251" width="29" height="2" style="fill:rgb(115,115,115);"/>
                </g>
                <g transform="matrix(1.20666,0,0,2,-2.89318,-445)">
                    <rect x="14" y="251" width="29" height="2" style="fill:rgb(115,115,115);"/>
                </g>
            </g>
            <g transform="matrix(1.02878,0,0,1,17.5971,-7)">
                <g transform="matrix(1.4748,0,0,1.5,-6.64721,-312.5)">
                    <rect x="14" y="251" width="29" height="2" style="fill:rgb(115,115,115);"/>
                </g>
                <g transform="matrix(0.603328,0,0,1.5,5.55341,-307.5)">
                    <rect x="14" y="251" width="29" height="2" style="fill:rgb(115,115,115);"/>
                </g>
                <g transform="matrix(0.93851,0,0,2,0.860863,-445)">
                    <rect x="14" y="251" width="29" height="2" style="fill:rgb(115,115,115);"/>
                </g>
            </g>
            <g transform="matrix(1.02878,0,0,1,94.5971,-37)">
                <g transform="matrix(1.4748,0,0,1.5,-6.64721,-312.5)">
                    <rect x="14" y="251" width="29" height="2" style="fill:rgb(115,115,115);"/>
                </g>
                <g transform="matrix(1.1061,0,0,2,-1.48541,-445)">
                    <rect x="14" y="251" width="29" height="2" style="fill:rgb(115,115,115);"/>
                </g>
            </g>
            <g transform="matrix(1.02878,0,0,1,94.5971,-7)">
                <g transform="matrix(0.737401,0,0,1.5,3.67639,-312.5)">
                    <rect x="14" y="251" width="29" height="2" style="fill:rgb(115,115,115);"/>
                </g>
                <g transform="matrix(1.37425,0,0,2,-5.23945,-445)">
                    <rect x="14" y="251" width="29" height="2" style="fill:rgb(115,115,115);"/>
                </g>
            </g>
            <g transform="matrix(1.02878,0,0,1,171.597,-37)">
                <g transform="matrix(1.4748,0,0,1.5,-6.64721,-312.5)">
                    <rect x="14" y="251" width="29" height="2" style="fill:rgb(115,115,115);"/>
                </g>
                <g transform="matrix(0.469255,0,0,1.5,7.43043,-307.5)">
                    <rect x="14" y="251" width="29" height="2" style="fill:rgb(115,115,115);"/>
                </g>
                <g transform="matrix(1.1061,0,0,2,-1.48541,-445)">
                    <rect x="14" y="251" width="29" height="2" style="fill:rgb(115,115,115);"/>
                </g>
            </g>
            <g transform="matrix(1.02878,0,0,1,171.597,-7)">
                <g transform="matrix(1.4748,0,0,1.5,-6.64721,-312.5)">
                    <rect x="14" y="251" width="29" height="2" style="fill:rgb(115,115,115);"/>
                </g>
                <g transform="matrix(1.4748,0,0,1.5,-6.64721,-307.5)">
                    <rect x="14" y="251" width="29" height="2" style="fill:rgb(115,115,115);"/>
                </g>
                <g transform="matrix(0.972028,0,0,2,0.391608,-445)">
                    <rect x="14" y="251" width="29" height="2" style="fill:rgb(115,115,115);"/>
                </g>
            </g>
            <g transform="matrix(0.909091,0,0,0.909091,-5.45455,-654)">
                <circle cx="28" cy="748" r="11" style="fill:rgb(179,179,179);"/>
            </g>
            <g transform="matrix(0.909091,0,0,0.909091,-5.45455,-624)">
                <circle cx="28" cy="748" r="11" style="fill:rgb(179,179,179);"/>
            </g>
            <g transform="matrix(0.909091,0,0,0.909091,71.5455,-654)">
                <circle cx="28" cy="748" r="11" style="fill:rgb(179,179,179);"/>
            </g>
            <g transform="matrix(0.909091,0,0,0.909091,71.5455,-624)">
                <circle cx="28" cy="748" r="11" style="fill:rgb(179,179,179);"/>
            </g>
            <g transform="matrix(0.909091,0,0,0.909091,148.545,-654)">
                <circle cx="28" cy="748" r="11" style="fill:rgb(179,179,179);"/>
            </g>
            <g transform="matrix(0.909091,0,0,0.909091,148.545,-624)">
                <circle cx="28" cy="748" r="11" style="fill:rgb(179,179,179);"/>
            </g>
            <g transform="matrix(5.14388,0,0,1,-62.0144,-74)">
                <g transform="matrix(1.4748,0,0,1.5,-6.64721,-312.5)">
                    <rect x="14" y="251" width="29" height="2" style="fill:rgb(115,115,115);"/>
                </g>
                <g transform="matrix(1.4748,0,0,1.5,-6.64721,-317.5)">
                    <rect x="14" y="251" width="29" height="2" style="fill:rgb(115,115,115);"/>
                </g>
                <g transform="matrix(1.4748,0,0,1.5,-6.64721,-307.5)">
                    <rect x="14" y="251" width="29" height="2" style="fill:rgb(115,115,115);"/>
                </g>
            </g>
        </g>
        <g id="adv">
        </g>
        <g transform="matrix(1.97727,0,0,1,102.318,1211)">
            <g id="smartModule0">
            </g>
        </g>
        <g id="smartModule">
        </g>
        <g transform="matrix(1,0,0,1,-10,1044)">
            <g id="smartModuleTree">
                <g id="tree">
                </g>
            </g>
        </g>
        <g id="header">
        </g>
        <g id="contactUs">
        </g>
        <g id="aboutUsIcon">
        </g>
        <g id="aboutUsTree" transform="matrix(1,0,0,1,0,720)">
            <g id="tree1" serif:id="tree">
            </g>
        </g>
        <g transform="matrix(0.935252,0,0,1,90.9065,600)">
            <g id="aboutUs">
            </g>
        </g>
        <g id="news">
        </g>
        <g id="newsSlide">
        </g>
        <g transform="matrix(1,0,0,1,6,211)">
            <g id="iStage">
            </g>
        </g>
        <g id="bigBannerTree" transform="matrix(1,0,0,1,0,100)">
            <g id="tree2" serif:id="tree">
            </g>
        </g>
        <g id="bigBanner">
        </g>
    </g>
</svg>
