<?xml version="1.0" encoding="UTF-8" standalone="no"?>
<!DOCTYPE svg PUBLIC "-//W3C//DTD SVG 1.1//EN" "http://www.w3.org/Graphics/SVG/1.1/DTD/svg11.dtd">
<svg width="100%" height="100%" viewBox="0 0 240 106" version="1.1" xmlns="http://www.w3.org/2000/svg" xmlns:xlink="http://www.w3.org/1999/xlink" xml:space="preserve" xmlns:serif="http://www.serif.com/" style="fill-rule:evenodd;clip-rule:evenodd;stroke-linejoin:round;stroke-miterlimit:2;">
    <g transform="matrix(1,0,0,1,0,-1700)">
        <g id="footer" transform="matrix(1,0,0,1,0,100)">
            <g id="圖層-1" serif:id="圖層 1">
            </g>
        </g>
        <g id="more" transform="matrix(1,0,0,1,0,1796)">
            <g transform="matrix(2.75,0,0,1.375,21,-98)">
                <rect x="12" y="8" width="48" height="48" style="fill:rgb(204,204,204);"/>
            </g>
            <g transform="matrix(5.14388,0,0,1,-62.0144,-74)">
                <g transform="matrix(1.4748,0,0,1.5,-6.64721,-312.5)">
                    <rect x="14" y="251" width="29" height="2" style="fill:rgb(115,115,115);"/>
                </g>
                <g transform="matrix(1.4748,0,0,1.5,-6.64721,-317.5)">
                    <rect x="14" y="251" width="29" height="2" style="fill:rgb(115,115,115);"/>
                </g>
                <g transform="matrix(1.4748,0,0,1.5,-6.64721,-307.5)">
                    <rect x="14" y="251" width="29" height="2" style="fill:rgb(115,115,115);"/>
                </g>
                <g transform="matrix(0.804437,0,0,1.5,2.73788,-302.5)">
                    <rect x="14" y="251" width="29" height="2" style="fill:rgb(115,115,115);"/>
                </g>
            </g>
        </g>
        <g id="aboutUsIcon2">
        </g>
        <g id="adv">
        </g>
        <g transform="matrix(1.97727,0,0,1,102.318,1211)">
            <g id="smartModule0">
            </g>
        </g>
        <g id="smartModule">
        </g>
        <g transform="matrix(1,0,0,1,-10,1044)">
            <g id="smartModuleTree">
                <g id="tree">
                </g>
            </g>
        </g>
        <g id="header">
        </g>
        <g id="contactUs">
        </g>
        <g id="aboutUsIcon">
        </g>
        <g id="aboutUsTree" transform="matrix(1,0,0,1,0,720)">
            <g id="tree1" serif:id="tree">
            </g>
        </g>
        <g transform="matrix(0.935252,0,0,1,90.9065,600)">
            <g id="aboutUs">
            </g>
        </g>
        <g id="news">
        </g>
        <g id="newsSlide">
        </g>
        <g transform="matrix(1,0,0,1,6,211)">
            <g id="iStage">
            </g>
        </g>
        <g id="bigBannerTree" transform="matrix(1,0,0,1,0,100)">
            <g id="tree2" serif:id="tree">
            </g>
        </g>
        <g id="bigBanner">
        </g>
    </g>
</svg>
