<?xml version="1.0" encoding="UTF-8" standalone="no"?>
<!DOCTYPE svg PUBLIC "-//W3C//DTD SVG 1.1//EN" "http://www.w3.org/Graphics/SVG/1.1/DTD/svg11.dtd">
<svg width="100%" height="100%" viewBox="0 0 240 78" version="1.1" xmlns="http://www.w3.org/2000/svg" xmlns:xlink="http://www.w3.org/1999/xlink" xml:space="preserve" xmlns:serif="http://www.serif.com/" style="fill-rule:evenodd;clip-rule:evenodd;stroke-linejoin:round;stroke-miterlimit:2;">
    <g transform="matrix(1,0,0,1,0,-1050)">
        <g id="footer" transform="matrix(1,0,0,1,0,100)">
            <g id="圖層-1" serif:id="圖層 1">
            </g>
        </g>
        <g transform="matrix(5.14388,0,0,1,-62.0144,1722)">
            <g id="more">
            </g>
        </g>
        <g id="aboutUsIcon2">
        </g>
        <g id="adv">
        </g>
        <g transform="matrix(1.97727,0,0,1,102.318,1211)">
            <g id="smartModule0">
            </g>
        </g>
        <g id="smartModule">
        </g>
        <g id="smartModuleTree" transform="matrix(1,0,0,1,0,1044)">
            <g id="tree" transform="matrix(1,0,0,1,-10,0)">
                <g transform="matrix(0.444444,0,0,0.537931,0.222222,-6.37241)">
                    <rect x="22" y="23" width="99" height="145" style="fill:white;"/>
                    <path d="M121,23L22,23L22,168L121,168L121,23ZM24.25,24.859L24.25,166.141L118.75,166.141L118.75,24.859L24.25,24.859Z" style="fill:rgb(191,191,191);"/>
                </g>
                <g transform="matrix(1.25,0,0,1,-5.5,0)">
                    <g transform="matrix(1,0,0,0.166667,-7.10543e-15,-101.333)">
                        <rect x="14" y="770" width="32" height="6" style="fill:rgb(204,204,204);"/>
                    </g>
                    <g transform="matrix(1,0,0,0.166667,-1.06581e-14,-93.3333)">
                        <rect x="14" y="770" width="32" height="6" style="fill:rgb(204,204,204);"/>
                    </g>
                    <g transform="matrix(1,0,0,0.166667,-1.42109e-14,-85.3333)">
                        <rect x="14" y="770" width="32" height="6" style="fill:rgb(204,204,204);"/>
                    </g>
                    <g transform="matrix(1,0,0,0.166667,-1.77636e-14,-77.3333)">
                        <rect x="14" y="770" width="32" height="6" style="fill:rgb(204,204,204);"/>
                    </g>
                    <g transform="matrix(1,0,0,0.166667,-2.13163e-14,-69.3333)">
                        <rect x="14" y="770" width="32" height="6" style="fill:rgb(204,204,204);"/>
                    </g>
                    <g transform="matrix(1,0,0,0.166667,-2.4869e-14,-61.3333)">
                        <rect x="14" y="770" width="32" height="6" style="fill:rgb(204,204,204);"/>
                    </g>
                    <g transform="matrix(1,0,0,0.166667,-2.84217e-14,-53.3333)">
                        <rect x="14" y="770" width="32" height="6" style="fill:rgb(204,204,204);"/>
                    </g>
                    <g transform="matrix(1,0,0,0.166667,-7.10543e-15,-109.333)">
                        <rect x="14" y="770" width="32" height="6" style="fill:rgb(153,153,153);"/>
                    </g>
                </g>
            </g>
            <g transform="matrix(1.9798,0,0,0.537931,0.444444,-6.37241)">
                <rect x="22" y="23" width="99" height="145" style="fill:rgb(166,166,166);"/>
            </g>
            <g transform="matrix(1,0,0,1,0.739513,-1039.23)">
                <text x="101.316px" y="1086.98px" style="font-family:'STHeitiTC-Medium', 'Heiti TC';font-size:16px;fill:white;">圖文模板區</text>
            </g>
        </g>
        <g id="header">
        </g>
        <g id="contactUs">
        </g>
        <g id="aboutUsIcon">
        </g>
        <g id="aboutUsTree" transform="matrix(1,0,0,1,0,720)">
            <g id="tree1" serif:id="tree">
            </g>
        </g>
        <g transform="matrix(0.935252,0,0,1,90.9065,600)">
            <g id="aboutUs">
            </g>
        </g>
        <g id="news">
        </g>
        <g id="newsSlide">
        </g>
        <g transform="matrix(1,0,0,1,6,211)">
            <g id="iStage">
            </g>
        </g>
        <g id="bigBannerTree" transform="matrix(1,0,0,1,0,100)">
            <g id="tree2" serif:id="tree">
            </g>
        </g>
        <g id="bigBanner">
        </g>
    </g>
</svg>
